<svg width="104" height="24" viewBox="0 0 104 24" fill="none" xmlns="http://www.w3.org/2000/svg">
<g clip-path="url(#clip0_1_2209)">
<path d="M0.5 0H2.76086V24H0.5V0Z" fill="#38A4D0"/>
<path d="M101.224 0H103.485V24H101.224V0Z" fill="#38A4D0"/>
<path d="M17.7006 10.8276H14.6034V15.7857C14.6034 16.7022 14.6707 17.3106 14.8054 17.6111C14.9401 17.9116 15.2842 18.0619 15.8378 18.0619L17.6781 17.9942L17.7904 19.9549C16.7879 20.1503 16.0248 20.2479 15.5011 20.2479C14.2294 20.2479 13.3541 19.9549 12.8753 19.369C12.4115 18.783 12.1796 17.6787 12.1796 16.0561V10.8276H10.7432V8.7317H12.1796V5.46387H14.6034V8.7317H17.7006V10.8276Z" fill="white"/>
<path d="M29.7167 17.9717L30.345 17.9041L30.3899 19.7296C28.6843 20.0751 27.1731 20.2479 25.8564 20.2479C24.1956 20.2479 22.9986 19.7896 22.2655 18.8732C21.5473 17.9567 21.1882 16.4918 21.1882 14.4785C21.1882 10.482 22.8116 8.48376 26.0584 8.48376C29.2006 8.48376 30.7715 10.2041 30.7715 13.6447L30.6144 15.4025H23.657C23.672 16.334 23.8739 17.0176 24.263 17.4534C24.652 17.889 25.3776 18.1069 26.44 18.1069C27.5023 18.1069 28.5945 18.0619 29.7167 17.9717ZM28.3701 13.5095C28.3701 12.3976 28.1905 11.6239 27.8314 11.1882C27.4873 10.7374 26.8963 10.512 26.0584 10.512C25.2205 10.512 24.6071 10.7449 24.2181 11.2107C23.844 11.6765 23.6495 12.4427 23.6345 13.5095H28.3701Z" fill="white"/>
<path d="M42.9315 11.0529C41.166 10.8125 39.8867 10.6924 39.0937 10.6924C38.3007 10.6924 37.747 10.79 37.4329 10.9853C37.1336 11.1656 36.9842 11.4586 36.9842 11.8643C36.9842 12.2699 37.1487 12.5554 37.4779 12.7207C37.8219 12.8859 38.6149 13.0813 39.8568 13.3066C41.1136 13.5169 42.0039 13.855 42.5277 14.3208C43.0513 14.7865 43.313 15.6129 43.313 16.7998C43.313 17.9867 42.9315 18.8581 42.1684 19.4141C41.4203 19.9699 40.3206 20.2479 38.8692 20.2479C37.9567 20.2479 36.8047 20.1202 35.413 19.8648L34.7174 19.7521L34.807 17.7013C36.6027 17.9417 37.8967 18.0619 38.6897 18.0619C39.4827 18.0619 40.0438 17.9642 40.373 17.7689C40.7173 17.5735 40.8891 17.2505 40.8891 16.7998C40.8891 16.3491 40.7247 16.0411 40.3955 15.8758C40.0813 15.6955 39.3108 15.5077 38.0839 15.3124C36.8718 15.102 35.9815 14.779 35.413 14.3433C34.8445 13.9076 34.5603 13.1113 34.5603 11.9544C34.5603 10.7975 34.9493 9.93363 35.7272 9.36269C36.5201 8.79177 37.5302 8.50632 38.7571 8.50632C39.7146 8.50632 40.8891 8.62652 42.2808 8.86689L42.9764 9.00212L42.9315 11.0529Z" fill="white"/>
<path d="M55.4719 11.0529C53.7061 10.8125 52.4268 10.6924 51.6338 10.6924C50.8408 10.6924 50.2874 10.79 49.973 10.9853C49.674 11.1656 49.5243 11.4586 49.5243 11.8643C49.5243 12.2699 49.6888 12.5554 50.018 12.7207C50.3623 12.8859 51.1552 13.0813 52.3969 13.3066C53.6537 13.5169 54.544 13.855 55.0678 14.3208C55.5914 14.7865 55.8534 15.6129 55.8534 16.7998C55.8534 17.9867 55.4719 18.8581 54.7087 19.4141C53.9604 19.9699 52.8607 20.2479 51.4096 20.2479C50.4968 20.2479 49.3448 20.1202 47.9531 19.8648L47.2575 19.7521L47.3474 17.7013C49.1428 17.9417 50.4371 18.0619 51.2301 18.0619C52.0231 18.0619 52.5842 17.9642 52.9131 17.7689C53.2574 17.5735 53.4295 17.2505 53.4295 16.7998C53.4295 16.3491 53.2648 16.0411 52.9355 15.8758C52.6214 15.6955 51.8509 15.5077 50.624 15.3124C49.4119 15.102 48.5219 14.779 47.9531 14.3433C47.3846 13.9076 47.1004 13.1113 47.1004 11.9544C47.1004 10.7975 47.4894 9.93363 48.2675 9.36269C49.0605 8.79177 50.0703 8.50632 51.2972 8.50632C52.255 8.50632 53.4295 8.62652 54.8208 8.86689L55.5165 9.00212L55.4719 11.0529Z" fill="white"/>
<path d="M68.2139 17.9717L68.8422 17.9041L68.8871 19.7296C67.1814 20.0751 65.6702 20.2479 64.3537 20.2479C62.6929 20.2479 61.4959 19.7896 60.7627 18.8732C60.0445 17.9567 59.6854 16.4918 59.6854 14.4785C59.6854 10.482 61.309 8.48376 64.5557 8.48376C67.6978 8.48376 69.2687 10.2041 69.2687 13.6447L69.1116 15.4025H62.1543C62.1691 16.334 62.3711 17.0176 62.7601 17.4534C63.1493 17.889 63.8749 18.1069 64.937 18.1069C65.9994 18.1069 67.0918 18.0619 68.2139 17.9717ZM66.8673 13.5095C66.8673 12.3976 66.6877 11.6239 66.3286 11.1882C65.9844 10.7374 65.3934 10.512 64.5557 10.512C63.7178 10.512 63.1043 10.7449 62.7154 11.2107C62.3412 11.6765 62.1466 12.4427 62.1318 13.5095H66.8673Z" fill="white"/>
<path d="M73.6408 20V8.73168H76.0647V10.0839C77.3366 9.25754 78.6084 8.72416 79.8803 8.48376V10.9403C78.5933 11.1957 77.4936 11.5262 76.5811 11.9319L76.0872 12.1347V20H73.6408Z" fill="white"/>
<path d="M92.0741 12.2023V17.3407C92.0892 17.6712 92.1714 17.9191 92.3211 18.0844C92.4858 18.2346 92.7325 18.3323 93.0617 18.3774L92.9943 20.2479C91.7076 20.2479 90.7126 19.9699 90.0096 19.4141C88.8125 19.9699 87.6081 20.2479 86.396 20.2479C84.1667 20.2479 83.0519 19.0534 83.0519 16.6646C83.0519 15.5227 83.3513 14.6964 83.9496 14.1855C84.5631 13.6747 85.4983 13.3667 86.7551 13.2615L89.6505 13.0136V12.2023C89.6505 11.6013 89.5156 11.1807 89.2465 10.9403C88.9921 10.6999 88.6105 10.5797 88.1018 10.5797C87.1443 10.5797 85.9473 10.6398 84.5107 10.76L83.7926 10.8051L83.7029 9.06971C85.3339 8.67908 86.8299 8.48376 88.1914 8.48376C89.568 8.48376 90.5556 8.78425 91.1539 9.38522C91.7674 9.97119 92.0741 10.9102 92.0741 12.2023ZM87.047 14.9968C86.0145 15.087 85.4983 15.6504 85.4983 16.6871C85.4983 17.7238 85.9547 18.2421 86.8675 18.2421C87.6155 18.2421 88.4085 18.1219 89.2465 17.8815L89.6505 17.7463V14.749L87.047 14.9968Z" fill="white"/>
</g>
<defs>
<clipPath id="clip0_1_2209">
<rect width="103" height="24" fill="white" transform="translate(0.5)"/>
</clipPath>
</defs>
</svg>
